<?xml version="1.0" encoding="utf-8"?>
<!-- Generator: Adobe Illustrator 26.1.0, SVG Export Plug-In . SVG Version: 6.00 Build 0)  -->
<svg version="1.1" id="Calque_1" xmlns="http://www.w3.org/2000/svg" xmlns:xlink="http://www.w3.org/1999/xlink" x="0px" y="0px"
	 viewBox="0 0 2500 612" style="enable-background:new 0 0 2500 612;" xml:space="preserve">
<style type="text/css">
	.st0{fill:#FFFFFF;}
	.st1{fill-rule:evenodd;clip-rule:evenodd;fill:#FFFFFF;}
	.st2{fill:#4E9BCD;}
</style>
<g>
	<path class="st0" d="M13.4,466.9c13.8,8.4,42.6,18.3,64.8,18.3c22.8,0,32.2-7.9,32.2-20.3s-7.4-18.3-35.6-27.7
		c-50-16.8-69.2-44-68.8-72.8c0-45.1,38.6-79.2,98.4-79.2c28.2,0,53.4,6.4,68.3,13.8l-13.3,51.9c-10.9-5.9-31.7-13.8-52.4-13.8
		c-18.3,0-28.7,7.4-28.7,19.8c0,11.4,9.4,17.3,39.1,27.7c46,15.8,65.3,39,65.8,74.7c0,45-35.6,78.2-104.9,78.2
		c-31.7,0-59.8-7-78.1-16.8L13.4,466.9z M447.7,409c0,88.5-62.8,129.1-127.6,129.1C249.3,538.1,195,491.6,195,413.4
		s51.4-128.1,129.1-128.1C398.3,285.3,447.7,336.3,447.7,409z M272.6,411.5c0,41.6,17.3,72.7,49.5,72.7c29.3,0,48-29.3,48-72.7
		c0-36.1-13.8-72.8-48-72.8C286,338.7,272.6,375.8,272.6,411.5z M474.6,367.9c0-30.2-1-55.9-2-77.1h65.3l3.4,33.1h1.5
		c9.9-15.3,34.6-38.5,74.6-38.5c49.5,0,86.6,32.6,86.6,103.9v143.5h-75.2V398.6c0-31.2-10.9-52.4-38.1-52.4
		c-20.8,0-33.1,14.3-38,28.2c-2,4.4-3,11.8-3,18.8v139.5h-75.1L474.6,367.9z M882.2,532.7l-4.4-24.3h-1.4
		c-15.8,19.3-40.6,29.7-69.3,29.7c-49,0-78.2-35.7-78.2-74.2c0-62.8,56.4-93,142-92.5v-3.4c0-12.9-7-31.2-44-31.2
		c-24.7,0-50.9,8.4-66.8,18.3l-13.9-48.4c16.8-9.4,50-21.3,94-21.3c80.6,0,106.4,47.5,106.4,104.4v84.1c0,23.2,1,45.5,3.5,58.9
		L882.2,532.7z M873.3,418.4c-39.5-0.5-70.3,8.9-70.3,38.1c0,19.3,12.9,28.7,29.7,28.7c17.6,0.1,33.3-11.1,39-27.7
		c1-4.2,1.5-8.5,1.5-12.9L873.3,418.4z M986.2,370.4c0-35.6-1-58.8-2-79.6h64.8l2.5,44.5h1.9c12.4-35.1,42.1-49.9,65.3-49.9
		c5.3-0.2,10.6,0.1,15.8,0.9v70.8c-6.7-1.3-13.5-2-20.3-2c-27.7,0-46.5,14.9-51.6,38.1c-1,5.6-1.4,11.2-1.4,16.8v122.7h-75.2
		L986.2,370.4z M1630.9,467.4c0,24.7,0.5,46.5,2,65.3h-38.6l-2.5-39.1h-0.9c-11.4,19.3-36.7,44.6-79.2,44.6
		c-37.6,0-82.7-20.8-82.7-104.9V293.2h43.5v132.5c0,45.5,13.8,76.2,53.4,76.2c29.2,0,49.4-20.3,57.4-39.6c2.6-7.1,4-14.7,3.9-22.3
		V293.2h43.5V467.4z M1681.5,532.7c1-16.3,2-40.6,2-61.9V181.4h43v150.4h1c15.3-26.7,43-44,81.6-44c59.3,0,101.4,49.5,100.9,122.2
		c0,85.6-53.9,128.2-107.3,128.2c-34.7,0-62.3-13.4-80.2-45.1h-1.5l-1.9,39.6L1681.5,532.7z M1726.4,436.7c0.1,5.3,0.8,10.6,2,15.8
		c8.4,30.2,33.6,50.9,65.3,50.9c45.6,0,72.7-37.1,72.7-92c0-48-24.7-89-71.2-89c-29.7,0-57.4,20.3-66.3,53.4c-1,5-2.5,10.9-2.5,17.8
		V436.7z M1969.4,420.9c0.9,58.9,38.6,83.1,82.1,83.1c31.2,0,50-5.4,66.3-12.3l7.4,31.2c-15.3,6.9-41.5,14.8-79.7,14.8
		c-73.7,0-117.8-48.5-117.8-120.7s42.5-129.1,112.3-129.1c78.2,0,98.9,68.8,98.9,112.9c0,6.8-0.5,13.6-1.4,20.3L1969.4,420.9z
		 M2097,389.7c0.5-27.7-11.3-70.8-60.3-70.8c-44,0-63.3,40.6-66.9,70.8H2097z"/>
	<path class="st1" d="M1377.4,336.3c-40.1-59.1-120.6-74.4-179.6-34.2c-59.1,40.1-74.4,120.6-34.2,179.6
		c34.9,51.4,101.5,70.7,158.5,45.9l50,81.2l39.7-27l-50-81.3C1405.8,456.7,1412.3,387.7,1377.4,336.3 M1321.3,483.9
		c-41.4,28.1-97.7,17.4-125.8-24s-17.4-97.7,24-125.8c41.4-28.1,97.7-17.4,125.8,24c0,0,0,0,0,0
		C1373.4,399.4,1362.7,455.7,1321.3,483.9"/>
</g>
<g>
	<path class="st2" d="M2436.6,533.7H2406c0-246.9-203.7-447.8-454.2-447.8V55.2C2219.1,55.2,2436.6,269.9,2436.6,533.7z"/>
	<path class="st2" d="M2457.8,369C2421,214.1,2295.5,84.8,2138.1,39.7l7-24.6c166.1,47.7,298.6,184.3,337.5,348.1L2457.8,369z
		 M2481.4,223.7c-37.9-82.7-102.5-154.8-181.9-203.1l10.6-17.5c82.9,50.3,150.3,125.6,189.9,212L2481.4,223.7z"/>
</g>
</svg>
